<svg width="144" height="28" viewBox="0 0 144 28" fill="none" xmlns="http://www.w3.org/2000/svg">
<path d="M10.7655 8.496C11.6615 8.496 12.4935 8.66667 13.2615 9.008C14.0508 9.34933 14.7228 9.82933 15.2775 10.448C15.8535 11.0453 16.2908 11.7707 16.5895 12.624C16.9095 13.456 17.0695 14.3733 17.0695 15.376C17.0695 16.3147 16.9202 17.1893 16.6215 18C16.3442 18.8107 15.9388 19.5147 15.4055 20.112C14.8722 20.688 14.2428 21.1467 13.5175 21.488C12.7922 21.8293 11.9815 22 11.0855 22H1.1655V17.968H9.9335C10.3602 17.968 10.7655 17.9147 11.1495 17.808C11.5548 17.7013 11.8962 17.5413 12.1735 17.328C12.4508 17.1147 12.6748 16.848 12.8455 16.528C13.0162 16.208 13.1015 15.824 13.1015 15.376C13.1015 14.544 12.8242 13.8933 12.2695 13.424C11.7362 12.9547 11.0642 12.72 10.2535 12.72H7.6615C6.5735 12.72 5.5815 12.6027 4.6855 12.368C3.7895 12.1333 3.03217 11.76 2.4135 11.248C1.79483 10.736 1.31483 10.0747 0.9735 9.264C0.632167 8.45333 0.4615 7.48267 0.4615 6.352C0.4615 5.56267 0.600167 4.79467 0.8775 4.048C1.15483 3.30133 1.53883 2.65067 2.0295 2.096C2.52017 1.52 3.1175 1.06133 3.8215 0.719999C4.5255 0.378665 5.30417 0.207998 6.1575 0.207998H15.1495V4.464H7.8215C7.39483 4.464 7.00017 4.496 6.6375 4.56C6.27483 4.60267 5.95483 4.69867 5.6775 4.848C5.40017 4.976 5.18683 5.17867 5.0375 5.456C4.88817 5.73333 4.8135 6.10667 4.8135 6.576C4.8135 7.10933 4.99483 7.568 5.3575 7.952C5.72017 8.31467 6.21083 8.496 6.8295 8.496H10.7655ZM90.5155 8.496C91.4115 8.496 92.2435 8.66667 93.0115 9.008C93.8008 9.34933 94.4728 9.82933 95.0275 10.448C95.6035 11.0453 96.0408 11.7707 96.3395 12.624C96.6595 13.456 96.8195 14.3733 96.8195 15.376C96.8195 16.3147 96.6702 17.1893 96.3715 18C96.0942 18.8107 95.6888 19.5147 95.1555 20.112C94.6222 20.688 93.9928 21.1467 93.2675 21.488C92.5422 21.8293 91.7315 22 90.8355 22H80.9155V17.968H89.6835C90.1102 17.968 90.5155 17.9147 90.8995 17.808C91.3048 17.7013 91.6462 17.5413 91.9235 17.328C92.2008 17.1147 92.4248 16.848 92.5955 16.528C92.7662 16.208 92.8515 15.824 92.8515 15.376C92.8515 14.544 92.5742 13.8933 92.0195 13.424C91.4862 12.9547 90.8142 12.72 90.0035 12.72H87.4115C86.3235 12.72 85.3315 12.6027 84.4355 12.368C83.5395 12.1333 82.7822 11.76 82.1635 11.248C81.5448 10.736 81.0648 10.0747 80.7235 9.264C80.3822 8.45333 80.2115 7.48267 80.2115 6.352C80.2115 5.56267 80.3502 4.79467 80.6275 4.048C80.9048 3.30133 81.2888 2.65067 81.7795 2.096C82.2702 1.52 82.8675 1.06133 83.5715 0.719999C84.2755 0.378665 85.0542 0.207998 85.9075 0.207998H94.8995V4.464H87.5715C87.1448 4.464 86.7502 4.496 86.3875 4.56C86.0248 4.60267 85.7048 4.69867 85.4275 4.848C85.1502 4.976 84.9368 5.17867 84.7875 5.456C84.6382 5.73333 84.5635 6.10667 84.5635 6.576C84.5635 7.10933 84.7448 7.568 85.1075 7.952C85.4702 8.31467 85.9608 8.496 86.5795 8.496H90.5155ZM142.014 8.88H135.646C135.369 8.88 135.134 8.93333 134.942 9.04C134.772 9.12533 134.622 9.25333 134.494 9.424C134.366 9.59467 134.27 9.78667 134.206 10C134.142 10.192 134.11 10.384 134.11 10.576C134.11 10.9813 134.238 11.3547 134.494 11.696C134.772 12.016 135.102 12.176 135.486 12.176H139.07C139.817 12.176 140.468 12.304 141.022 12.56C141.598 12.816 142.068 13.168 142.43 13.616C142.814 14.064 143.092 14.5973 143.262 15.216C143.454 15.8347 143.55 16.496 143.55 17.2V17.296C143.55 18 143.433 18.64 143.198 19.216C142.985 19.792 142.676 20.2827 142.27 20.688C141.865 21.0933 141.385 21.4133 140.83 21.648C140.276 21.8827 139.689 22 139.07 22H131.326V18.832H137.982C138.473 18.832 138.921 18.6933 139.326 18.416C139.753 18.1387 139.977 17.7227 139.998 17.168V17.2C139.998 16.88 139.934 16.6133 139.806 16.4C139.7 16.1867 139.55 16.016 139.358 15.888C139.166 15.7387 138.953 15.632 138.718 15.568C138.484 15.504 138.238 15.472 137.982 15.472H135.102C134.164 15.472 133.385 15.3227 132.766 15.024C132.169 14.7253 131.689 14.3413 131.326 13.872C130.985 13.4027 130.75 12.8693 130.622 12.272C130.494 11.6747 130.43 11.0667 130.43 10.448C130.43 9.808 130.526 9.18933 130.718 8.592C130.91 7.99467 131.188 7.472 131.55 7.024C131.934 6.55467 132.404 6.192 132.958 5.936C133.513 5.68 134.142 5.552 134.846 5.552H142.014V8.88Z" fill="#C23D14"/>
<path d="M26.5098 18.352C27.0431 18.352 27.4698 18.288 27.7898 18.16C28.1311 18.032 28.3978 17.8613 28.5898 17.648C28.8031 17.4347 28.9524 17.1787 29.0378 16.88C29.1231 16.5813 29.1658 16.2613 29.1658 15.92V5.712H32.9098V22H29.1658V21.584C28.8244 21.7333 28.4511 21.84 28.0458 21.904C27.6618 21.968 27.2458 22 26.7978 22H25.1658C24.2058 22 23.3631 21.84 22.6378 21.52C21.9338 21.2 21.3471 20.784 20.8778 20.272C20.4084 19.7387 20.0458 19.1413 19.7898 18.48C19.5551 17.7973 19.4378 17.1147 19.4378 16.432V5.712H23.1498V15.664C23.1498 16.048 23.1818 16.4 23.2458 16.72C23.3098 17.04 23.4378 17.328 23.6298 17.584C23.8218 17.8187 24.0884 18.0107 24.4298 18.16C24.7711 18.288 25.2298 18.352 25.8058 18.352H26.5098ZM106.26 18.352C106.793 18.352 107.22 18.288 107.54 18.16C107.881 18.032 108.148 17.8613 108.34 17.648C108.553 17.4347 108.702 17.1787 108.788 16.88C108.873 16.5813 108.916 16.2613 108.916 15.92V5.712H112.66V22H108.916V21.584C108.574 21.7333 108.201 21.84 107.796 21.904C107.412 21.968 106.996 22 106.548 22H104.916C103.956 22 103.113 21.84 102.388 21.52C101.684 21.2 101.097 20.784 100.628 20.272C100.158 19.7387 99.7958 19.1413 99.5398 18.48C99.3051 17.7973 99.1878 17.1147 99.1878 16.432V5.712H102.9V15.664C102.9 16.048 102.932 16.4 102.996 16.72C103.06 17.04 103.188 17.328 103.38 17.584C103.572 17.8187 103.838 18.0107 104.18 18.16C104.521 18.288 104.98 18.352 105.556 18.352H106.26Z" fill="#FFB800"/>
<path d="M42.4778 5.712C43.4164 5.712 44.2484 5.86133 44.9738 6.16C45.7204 6.43733 46.3498 6.832 46.8618 7.344C47.3951 7.856 47.8004 8.47467 48.0778 9.2C48.3551 9.92533 48.4938 10.7467 48.4938 11.664V16.048C48.4938 16.944 48.3551 17.7653 48.0778 18.512C47.8004 19.2373 47.3951 19.8667 46.8618 20.4C46.3498 20.912 45.7204 21.3067 44.9738 21.584C44.2484 21.8613 43.4164 22 42.4778 22H41.4538C40.5151 22 39.6618 21.8507 38.8938 21.552V27.568H35.1818V5.712H42.4778ZM38.8938 9.392V15.92C38.8938 16.624 39.1071 17.2 39.5338 17.648C39.9604 18.096 40.5151 18.32 41.1978 18.32H42.4778C43.1604 18.32 43.7258 18.096 44.1738 17.648C44.6218 17.2 44.8458 16.624 44.8458 15.92V11.76C44.8458 11.056 44.6218 10.4907 44.1738 10.064C43.7258 9.616 43.1604 9.392 42.4778 9.392H38.8938ZM70.9385 9.04C71.2372 8.54933 71.6318 8.12267 72.1225 7.76C72.6345 7.376 73.1892 7.056 73.7865 6.8C74.4052 6.544 75.0558 6.352 75.7385 6.224C76.4212 6.096 77.1038 6.032 77.7865 6.032H78.2025V10H77.7865C77.0185 10 76.2292 10.16 75.4185 10.48C74.6078 10.7787 73.8612 11.184 73.1785 11.696C72.5172 12.1867 71.9732 12.7413 71.5465 13.36C71.1412 13.9787 70.9385 14.5973 70.9385 15.216V22H66.9705V5.584H70.9385V9.04ZM122.228 5.712C123.166 5.712 123.998 5.86133 124.724 6.16C125.47 6.43733 126.1 6.832 126.612 7.344C127.145 7.856 127.55 8.47467 127.828 9.2C128.105 9.92533 128.244 10.7467 128.244 11.664V16.048C128.244 16.944 128.105 17.7653 127.828 18.512C127.55 19.2373 127.145 19.8667 126.612 20.4C126.1 20.912 125.47 21.3067 124.724 21.584C123.998 21.8613 123.166 22 122.228 22H120.948C120.009 22 119.166 21.8613 118.42 21.584C117.694 21.3067 117.065 20.912 116.532 20.4C116.02 19.8667 115.625 19.2373 115.348 18.512C115.07 17.7653 114.932 16.944 114.932 16.048V11.664V11.408V0.207998H118.708V6.128C119.497 5.85067 120.329 5.712 121.204 5.712H122.228ZM120.948 9.392C120.265 9.392 119.721 9.60533 119.316 10.032C118.932 10.4587 118.729 11.0027 118.708 11.664V15.92C118.708 16.624 118.91 17.2 119.316 17.648C119.721 18.096 120.265 18.32 120.948 18.32H122.228C122.91 18.32 123.465 18.096 123.892 17.648C124.318 17.2 124.532 16.624 124.532 15.92V11.76C124.532 11.056 124.318 10.4907 123.892 10.064C123.465 9.616 122.91 9.392 122.228 9.392H120.948Z" fill="#111111"/>
<path d="M50.399 11.504C50.399 10.7147 50.5483 9.97867 50.847 9.296C51.1457 8.592 51.5403 7.97333 52.031 7.44C52.5217 6.90667 53.087 6.49067 53.727 6.192C54.367 5.872 55.007 5.712 55.647 5.712H59.295C60.127 5.712 60.863 5.89333 61.503 6.256C62.1643 6.59733 62.7083 7.04533 63.135 7.6C63.583 8.13333 63.9243 8.74133 64.159 9.424C64.415 10.0853 64.543 10.736 64.543 11.376V15.504H54.175V16.368C54.175 17.136 54.3883 17.68 54.815 18C55.2417 18.32 55.807 18.48 56.511 18.48H63.967V22.064H55.679C54.9537 22.064 54.271 21.9253 53.631 21.648C52.991 21.3493 52.4257 20.9547 51.935 20.464C51.4657 19.9733 51.0923 19.3867 50.815 18.704C50.5377 18.0213 50.399 17.2747 50.399 16.464V11.504ZM54.207 12.464H60.831V12.304C60.831 11.472 60.6177 10.7893 60.191 10.256C59.7643 9.70133 59.1883 9.424 58.463 9.424H56.479C56.1377 9.424 55.8283 9.50933 55.551 9.68C55.2737 9.82933 55.039 10.032 54.847 10.288C54.655 10.544 54.495 10.8533 54.367 11.216C54.2603 11.5573 54.207 11.92 54.207 12.304V12.464Z" fill="#0A1F55"/>
</svg>
